<svg
      xmlns="http://www.w3.org/2000/svg"
      width="1000" 
      height="1000"
      version="1.1"
      viewBox="0 0 1000 1000"
      xmlSpace="preserve"
    >
      <path
        opacity="0"
      ></path>
      <path
        fill="#FFF"
        d="M535.563 1c1.09.666 1.663 1.802 2.408 1.929 18.027 3.08 36.061 6.123 54.119 9.022 12.558 2.016 24.989 4.038 36.605 9.905 13.518 6.828 14.785 25.279 4.793 32.892-4.295 3.273-9.77 4.999-13.608 6.886 3.067 2.675 7.79 5.678 11.032 9.837 9.16 11.751 2.496 30.328-14.62 33.522-10.467 1.954-20.809.86-31.212-.887-11.842-1.99-23.795-3.306-35.664-5.145-9.426-1.461-18.792-3.302-28.2-4.888-1.456-.246-2.99-.035-5.423-.035.658-3.912 1.14-7.654 2.021-11.3.184-.761 1.918-1.761 2.799-1.64 5.262.724 10.483 1.744 16.242 2.757l10.895-66.519c-5.349-.758-10.957-1.35-16.452-2.483-1.293-.267-3.124-2.37-3.117-3.62.017-3.172.935-6.34 1.156-9.87C531.042 1 533.083 1 535.563 1m21.474 68.768l-2.21 16.833c6.087 1.035 11.63 2.163 17.227 2.889 10.013 1.298 20.034 2.964 30.095 3.335 9.716.359 15.7-9.401 11.737-18.031-2.154-4.692-6.386-7.475-11.044-8.649-9.67-2.437-19.508-4.235-29.314-6.103-4.697-.895-9.477-1.353-14.187-2.004-.664 3.95-1.254 7.457-2.304 11.73M586.624 52c1.165.012 2.333-.013 3.496.041 6.565.304 13.14 1.01 19.687.811 4.482-.136 9.455-5.386 10.122-9.867.742-4.988-1.142-9.414-5.482-11.663-4.602-2.385-9.695-4.188-14.781-5.201-11.376-2.267-22.88-3.886-34.257-5.757l-4.474 27.176c8.565 1.54 16.674 2.999 25.689 4.46zM463.535 1c1.131 3.79 1.798 7.578 2.55 11.852l-20.382 3.517 9.631 66.154 19.317-2.68 2.362 12.622-57.741 8.429-2.11-12.541L437.647 85l-9.662-66.189c-6.641.83-13.028 1.626-19.587 2.445-.516-3.145-.966-5.83-1.396-8.52-.55-3.452 1.305-4.408 4.404-4.79 12.575-1.55 25.128-3.293 37.68-5.029.55-.076 1.013-.777 1.215-1.552C454.357 1 458.714 1 463.535 1zM455.465 1001c-.95-.662-1.36-1.828-1.928-1.91-12.19-1.77-24.425-3.247-36.572-5.257-2.09-.346-6.966.942-5.754-4.53l54.58 8.02c.44-3.438.73-6.462 1.267-9.442.172-.95 1.001-1.782 1.53-2.669.804 1.023 2.363 2.112 2.28 3.055-.353 3.99-1.195 7.938-1.863 12.317-4.362.416-8.719.416-13.54.416zM469.374 717.765c-15.99-8.402-23.952-22.468-28.25-38.649-6.806-25.632-12.76-51.49-19.266-77.203-.385-1.518-2.26-3.147-3.824-3.79-5.475-2.25-11-4.573-16.723-5.985-12.847-3.17-21.2-12.386-29.038-21.756-12.103-14.467-18.504-31.931-21.885-50.219-1.158-6.265.197-13.447 2.087-19.7 2.003-6.625 10.53-9.253 18.869-7.323 12.857 2.977 24.254 8.555 33.54 18.197 7.685 7.979 15.61 15.727 23.353 23.504 4.881-8.259 14.197-10.466 23.864-10.727 24.902-.674 49.82-1.02 74.731-1.003 10.83.007 21.707.831 32.464 2.11 3.699.44 7.29 3.108 10.56 5.308 1.81 1.218 2.857 3.574 4.055 5.163 13.238-14.249 24.363-28.96 41.171-37.018 6.236-2.99 13.396-4.57 20.31-5.514 12.148-1.661 15.876 7.558 16.594 16.3 1.042 12.682-3.176 24.222-7.591 35.8-4.505 11.816-11.245 22.221-19.73 31.345-6.38 6.862-13.761 12.736-23.173 15.46-5.68 1.645-11.254 3.737-16.698 6.047-1.58.67-3.253 2.604-3.69 4.272-7.142 27.185-13.629 54.55-21.263 81.594-4.293 15.209-13.115 27.674-28.067 34.785-1.304.62-2.48 1.966-3.215 3.26-5.185 9.133-13.035 14.218-23.403 14.911-12.297.822-22.062-3.553-28.603-14.595-1.23-2.078-4.513-2.942-7.18-4.574m-86.359-151.24c5.24 7.072 12.056 12.191 20.163 15.4 7.436 2.945 15.154 5.179 22.566 8.176 2.077.84 4.561 3.003 5.08 5.017 5.925 23.043 11.457 46.187 17.2 69.278 2.827 11.368 5.22 22.985 12.999 32.327 3.37 4.046 7.218 7.694 10.849 11.523.284-18.056 14.484-29.899 26.992-30.187 19.691-.455 32.668 10.446 33.25 27.544.76-.233 1.588-.322 2.219-.722.825-.523 1.506-1.279 2.227-1.958 6.888-6.498 11.648-14.608 14.066-23.454 6.905-25.27 13.428-50.668 19.132-76.232 2.05-9.184 5.522-14.286 15.158-16.53 12.42-2.893 24.274-7.915 32.998-18.116 9.223-10.785 16.315-22.775 20.024-36.512 1.799-6.662 3.38-13.51 3.88-20.361.485-6.679-3.494-9.923-8.974-8.674-14.701 3.349-25.878 12.525-36.034 22.85-8.52 8.664-16.208 18.12-21.075 29.557-.944 2.218-3.015 4.491-6.375 3.316-3.674-1.284-4.404-3.796-2.46-8.363.72-1.69 1.837-3.6 1.592-5.231-.516-3.429-8.672-9.91-12.39-10.14-12.161-.751-24.337-2-36.498-1.897-23.169.197-46.328 1.34-69.498 1.77-6.297.117-10.597 2.444-14.314 7.477-2.119 2.869-1.752 4.804-.461 7.48.812 1.686 1.77 3.8 1.383 5.415-.348 1.457-2.25 3.14-3.795 3.589-3.373.978-5.423-1.207-6.955-4.052-2.59-4.81-4.604-10.17-8.123-14.194-8.198-9.376-16.43-18.981-26.045-26.768-6.369-5.157-15.006-7.731-22.919-10.681-4.85-1.809-6.402.04-7.958 5.072-2.178 7.04.292 13.43 2.114 19.89 3.923 13.918 9.571 27.007 19.982 38.391zM213.27 204.771a245.843 245.843 0 00-2.281-2.05l12.11-11.636-.523-1.423c-5.117.423-10.227.998-15.353 1.226-4.987.222-10.001.293-14.983.033-2.836-.148-4.014 1.206-4.181 3.516-.772 10.651-1.382 21.314-2.103 32.81l11.67-13.323 1.11 1.103c.311.072.716.044.92.233 8.618 7.966 8.615 7.968.427 16.156-9.073 9.074-18.128 18.165-27.223 27.216-5.991 5.962-4.617 6.057-10.919-.168-1.05-1.038-2.253-1.92-4.121-3.494 2.511-2.234 4.292-4.256 6.469-5.667 5.533-3.587 6.052-9.296 6.68-14.937.795-7.154 1.417-14.329 2.014-21.503.595-7.146 1.067-14.303 1.647-22.18-5.554.431-11.25 1.126-16.957 1.26-9.16.214-18.335-.112-27.491.181-2.157.07-4.66 1.244-6.315 2.694-3.72 3.258-7.007 7.009-10.279 10.362l-9.436-9.465c.437-.515 1.192-1.537 2.08-2.426 11.884-11.917 23.866-23.739 35.626-35.778 2.694-2.758 4.544-3.302 7.153-.117 1.782 2.175 4.042 3.958 6.687 6.49l-10.818 10.512h31.73l2.428-34.287-11.112 12.496-10.408-10.342 39.46-39.375 9.132 10.41c-2.543 2.3-5.983 5.139-9.069 8.322-1.38 1.424-2.759 3.475-2.922 5.347-.912 10.48-1.412 20.996-2.136 31.494-.347 5.03-.876 10.049-1.275 14.539 10.868 0 21.147-.796 31.25.198 13.077 1.287 23.729-1.598 31.28-12.91.351-.528.951-.89 1.157-1.076l8.4 8.638-43.491 43.48c-1.786-1.95-3.783-4.133-6.033-6.559zM749.702 70.268c14.205 9.073 29.316 16.212 40.694 28.636 6.789 7.413 8.707 16.225 4.984 25.184-3.968 9.55-10.75 15.366-21.647 14.881-5.124-.228-10.233-.787-15.24-1.187 3.576 8.371 6.823 17.436 5.388 27.165-.977 6.62 2.297 9.714 7.511 12.157 1.723.808 3.185 2.172 4.914 3.384l-6.726 10.775-45.635-27.646 6.761-10.92 14.632 8.487c3.181-25.886-7.073-35.472-31.053-47.208l-12.409 20.826 15.122 9.468-6.52 11.239-47.05-28.398 6.246-11.452c4.622 2.782 9.142 5.7 13.88 8.205 1.083.572 3.789.25 4.28-.556 11.117-18.226 22.028-36.577 33.05-55.026l-17.3-10.569 6.836-10.973a15064.443 15064.443 0 0139.282 23.528m13.366 54.32c9.357 1.232 15.035-3.602 14.93-12.732-.076-6.464-4.357-10.378-8.947-13.777-5.16-3.82-10.652-7.211-16.117-10.6-5.385-3.337-10.917-6.437-16.655-9.8l-14.735 24.766c7.612 4.64 14.435 9.226 21.651 13.07 6.167 3.285 12.787 5.72 19.873 9.073z"
        opacity="1"
      ></path>
      <path
        fill="#FFF"
        d="M626.668 314.25c-19.302-12.633-38.314-25.025-57.281-37.485-3.243-2.13-4.728-5.186-2.696-8.862 1.922-3.478 6.424-3.959 10.337-1.376a43025.76 43025.76 0 0156.03 37.037c10.075 6.674 19.84 13.871 30.236 19.997 14.045 8.276 17.023 20.935 13.238 36.562-5.492 22.675-10.198 45.54-15.62 68.233-2.415 10.1-5.13 20.222-8.863 29.888-3.647 9.445-12.223 14.292-21.513 16.606-17.806 4.435-29.787 15.783-39.406 30.555-3.784 5.812-7.902 11.416-12.066 16.965-2.88 3.837-7.138 4.537-10.147 2.047-2.663-2.204-2.448-6.535.26-10.125 5.95-7.886 12.202-15.586 17.59-23.844 8.397-12.87 20.169-20.66 34.429-25.533 5.389-1.841 10.806-4.178 15.499-7.343 6.892-4.648 7.558-12.776 9.308-20.14 1.299-5.468 2.935-10.878 3.841-16.409.427-2.606-.078-5.574-.9-8.14-4.401-13.734-8.899-27.44-13.644-41.057-2.527-7.255-7.644-12.258-14.987-14.832-9.516-3.337-19.103-6.496-28.482-10.182-1.712-.673-3.67-3.58-3.549-5.318.145-2.089 2.228-4.18 3.821-5.957.562-.625 2.288-.712 3.26-.384 10.469 3.53 20.997 6.92 31.3 10.891 10.603 4.087 17.462 12.142 21.242 22.704 2.696 7.532 4.923 15.233 7.77 24.147 1.317-4.424 2.512-7.72 3.27-11.114 2.176-9.747 4.07-19.556 6.278-29.295 1.735-7.655.058-12.028-6.628-16.535-10.566-7.124-21.084-14.319-31.927-21.701zM415.237 273.264c3.45-2.458 6.603-4.703 9.833-6.831 3.785-2.494 8.651-1.9 10.324 1.569 1.87 3.878.194 6.706-3.321 9.03-29.437 19.467-58.752 39.117-88.24 58.505-7.12 4.682-9.199 9.853-6.694 20.783 2.723 11.883 5.717 23.703 8.907 36.842 2.204-6.578 4.347-12.11 5.907-17.8 3.689-13.463 10.508-24.384 23.994-29.741 7.29-2.895 14.852-5.103 22.296-7.605 2.581-.868 5.187-1.664 7.766-2.54 3.588-1.22 6.017.132 7.41 3.446 1.48 3.523.615 6.57-3.01 7.928-9.444 3.539-18.97 6.865-28.521 10.105-7.61 2.58-12.746 7.766-15.361 15.1-5.061 14.188-10.105 28.413-14.227 42.887-1.129 3.964.741 8.938 1.766 13.324 1.82 7.795 3.52 15.688 6.277 23.169 1.95 5.289 6.66 8.538 12.118 10.622 8.06 3.076 16.231 6.04 23.874 9.986 9.376 4.84 15.57 13.307 21.632 21.684 4.827 6.67 9.482 13.468 14.4 20.07 3.178 4.263 3.537 8.655.465 10.824-3.262 2.303-7.596 1.136-10.495-2.828-6.3-8.618-12.814-17.087-18.838-25.893-6.58-9.618-15.647-15.24-26.448-19.065-7.02-2.486-14.11-5.55-20.173-9.784-8.464-5.912-10.601-15.877-12.835-25.354-2.952-12.53-5.662-25.118-8.549-37.664-3.789-16.465-8.179-32.812-11.318-49.398-2.697-14.252 3.663-24.623 15.888-32.35 20.694-13.08 40.965-26.83 61.439-40.26 4.438-2.912 8.978-5.668 13.734-8.76zM226.824 808.328c-3.19-3.178-6.134-6.079-8.954-8.858.265-.707.297-1.082.5-1.292 7.998-8.308 8.068-8.373 16.164-.109 9.864 10.07 19.598 20.264 29.362 30.378l-8.51 8.61c-1.909-1.966-4.044-3.681-5.562-5.832-3.136-4.448-7.755-5.73-12.625-6.162-9.813-.87-19.66-1.35-29.486-2.088-3.388-.254-6.755-.793-11.16-1.327.501 7.597 1.153 14.606 1.375 21.63.236 7.488-.131 14.998.195 22.48.094 2.172 1.202 4.684 2.65 6.334 3.266 3.717 7.034 6.993 11.137 10.973-2.468 2.282-4.71 4.012-6.52 6.115-2.31 2.683-3.924 1.941-6.032-.268-9.845-10.32-19.804-20.53-29.726-30.776-.81-.837-1.646-1.652-2.47-2.477-7.099-7.098-7.066-7.303 1.773-13.105.54-.354.914-.961 1.749-1.867l10.016 11.126V820.12l-34.475-3.216 12.218 11.08-9.745 9.464-36.6-38.046c2.724-2.705 5.442-5.404 8.49-8.433 1.78 1.82 3.849 3.463 5.315 5.531 3.87 5.463 9.544 6.05 15.5 6.546 13.01 1.084 26 2.422 39.932 3.745-.44-5.403-1.115-10.88-1.279-16.37-.223-7.49-.44-15.018.071-22.48.376-5.486-1.117-9.535-5.45-12.85-2.495-1.91-4.625-4.297-8.492-7.957 2.324-1.504 4.5-2.511 6.163-4.067 4.381-4.097 4.253-4.155 8.84.603 10.245 10.628 20.53 21.22 30.81 31.814 1.276 1.314 2.63 2.552 3.64 3.529l-8.993 9.137-9.34-10.364v30.928l31.96 2.469a460.831 460.831 0 00-2.441-2.855zM760.334 872.102c6.402 1.68 12.51 2.99 18.394 4.968 3.582 1.203 6.817 3.437 10.748 5.49l11.729-6.847c1.739 2.8 3.6 5.248 4.793 7.987.48 1.099-.023 3.623-.901 4.165-12.717 7.853-25.573 15.48-38.398 23.157-.66.394-1.34.753-2.275 1.276l-6.55-10.544 13.64-8.132c-13.554-13.233-37.62-10.922-52.635 5.321l11.59 19.354 14.782-8.614c1.57 2.646 2.696 5.38 4.552 7.464 2.262 2.542.891 3.494-1.147 4.73-13.88 8.417-27.74 16.869-41.857 25.461l-6.123-10.72 15.281-9.55-32.854-54.088-16.381 10.16-6.182-10.686c5.616-3.57 10.967-7.117 16.458-10.432 15.419-9.308 30.758-18.76 46.402-27.676 8.865-5.051 18.584-8.011 28.996-6.27 6.183 1.033 15.09 10.234 15.707 19.246.63 9.203-3.225 16.318-8.796 22.977-.193.232.408 1.129 1.027 1.803m-19.347-2.58c2.24-1.906 4.85-3.518 6.632-5.783 2.826-3.593 5.878-7.26 3.47-12.594-3.738-8.282-10.706-10.491-19.365-6.18-11.592 5.773-22.71 12.497-34.16 18.883 4.57 7.517 8.71 14.21 12.714 20.982 1.18 1.995 1.858 2.815 4.366 1.171 8.457-5.544 17.183-10.678 26.343-16.48zM885.21 365.707c-13.854-18.097-18.577-38.333-16.845-60.732-1.21.608-2.566 1.317-3.947 1.975-1.447.69-2.917 1.333-4.88 2.224l-7.739-16.029c7.841-3.786 15.298-7.498 22.895-10.896.83-.371 2.5 1.004 3.708 1.697.332.19.308.916.6 1.27 7.068 8.555 2.627 18.043 1.83 27.046-.805 9.093 1.02 17.53 3.844 25.918 2.371 7.046 6.226 13.21 12.031 17.964 2.991 2.45 6.004 5.007 10.46 3.261 4.868-1.908 6.478-5.803 6.818-10.514.804-11.145-3.153-21.378-6.423-31.684-3.133-9.875-5.264-19.858-4.511-30.233.63-8.677 4.33-15.82 12.279-19.994 7.66-4.023 15.14-2.238 21.958 2.131 11.28 7.228 17.922 18.204 22.587 30.344 2.049 5.33 3.307 11.103 3.98 16.787.666 5.64.145 11.42.145 17.063l7.44-3.079 7.536 16.02-25.525 11.826c-.163-.74-.092-1.64-.506-2.119-7.702-8.888-4.257-18.165-1.683-27.837 3.286-12.351-4.242-32.985-16.115-41.061-3.382-2.301-7.436-3.494-10.872-.635-4.24 3.528-5.187 8.874-4.05 13.884 3.197 14.09 7.232 27.992 10.393 42.09 1.707 7.61 2.11 15.553-.839 23.035-4.495 11.404-20.18 19.074-35.075 8.662-3.342-2.336-6.18-5.394-9.494-8.384zM621.24 974.306c-11.5 3.072-22.64 6.21-33.936 8.602-11.229 2.377-22.603 4.086-33.94 5.93-6.706 1.092-13.462 1.878-21.209 2.94l-2.49-11.531 18.08-3.388-10.175-62.361-19.218 2.75-1.523-11.723c16.382-2.888 32.238-6.07 48.22-8.381 13.24-1.915 26.615-3.681 39.955-3.877 11.493-.169 18.605 3.49 21.92 13.152 3.54 10.322-.184 18.503-13.05 26.268 7.237.827 13.48 2.712 18.26 7.923 5.484 5.98 5.728 20.069-.116 25.695-3.103 2.988-6.966 5.186-10.778 8.001m-16.786-7.303c2.346-.982 4.787-1.786 7.02-2.98 7.343-3.929 7.699-14.402.957-19.277-5.787-4.183-11.843-4.054-18.5-2.849-11.26 2.04-22.636 3.442-33.698 5.074l4.26 27.23c4.913-.745 9.732-1.338 14.495-2.231 8.23-1.543 16.424-3.273 25.466-4.967m-6.24-37.03c.898-.33 1.831-.585 2.687-1 4.374-2.12 8.31-4.896 9.024-10.049 1.023-7.39-4.284-13.224-12.269-12.798-10.066.537-20.097 1.88-30.115 3.102-4.413.539-8.757 1.637-13.188 2.492l4.204 26.091c13.019-2.617 25.929-5.213 39.658-7.839zM59.245 298.37c-3.846 9.568-7.48 18.795-11.295 28.48l25.56 10.602 14.005-33.983c-.016-.003.229.011.456.082 9.744 3.058 9.68 3.032 5.745 12.204-3.156 7.357-6.038 14.833-9.237 22.17-1.272 2.92-.025 4.113 2.429 5.08 7.002 2.764 13.956 5.655 21 8.307.774.291 2.659-.376 2.934-1.048 6.558-15.992 12.965-32.045 19.62-48.638l-15.523-6.257 6.473-16.545c8.759 3.463 17.376 6.802 25.895 10.376.632.266 1.084 2.429.724 3.366a1521.397 1521.397 0 01-12.04 30.362c-9.28 22.686-18.644 45.34-27.949 68.016-.234.57-.176 1.26-.25 1.86-.511.059-.9.234-1.122.11-3.562-1.991-8.904-3.283-10.12-6.256-1.122-2.741 2.141-7.317 3.572-11.046.8-2.089 1.802-4.1 2.705-6.127l-61.95-25.372-7.448 18.16c-3.307-1.136-6.65-1.89-9.527-3.485-1.034-.574-1.767-3.51-1.244-4.803 10.08-24.948 20.376-49.81 30.61-74.695 3.343-8.13 6.636-16.28 9.982-24.491l27.52 11.424c-1.724 4.593-3.17 9.134-5.2 13.398-.534 1.12-3.154 2.256-4.334 1.878-4.395-1.408-8.59-3.442-12.636-5.147-3.046 7.223-6.095 14.45-9.355 22.019zM881.293 657.205c-7.188 7.254-9.949 16.128-11.163 25.522-.308 2.381.654 5.108 1.615 7.436 2.054 4.976 6.758 6.322 11.187 3.407 8.428-5.547 12.818-14.41 18.49-22.285 6.173-8.571 12.255-17.48 19.847-24.693 11.682-11.099 32.094-6.558 35.795 11.532 2.11 10.314.238 19.855-3.846 29.3-4.562 10.553-10.602 20.045-19.067 27.866-2.832 2.616-6.013 4.856-9.406 7.564l8.517 4.035-6.733 15.496-23.648-10.724c2.24-8.225 5.698-14.618 13.474-18.595 15.472-7.913 23.365-21.796 27.564-38.035 1.663-6.427-1.827-14.05-7.136-14.387-3.504-.221-8.27 1.485-10.585 4.039-5.957 6.569-11.297 13.813-16.079 21.302-5.836 9.14-11.796 18.045-20.903 24.23-7.823 5.314-21.815 6.827-28.505-3.24-2.46-3.703-4.474-8.55-4.498-12.886-.136-24.286 8.576-44.147 30.09-56.607l-7.549-3.696c1.913-4.709 3.528-9.039 5.49-13.206.38-.804 2.416-1.654 3.183-1.32 7.192 3.125 14.274 6.503 21.963 10.075-2.209 4.817-4.21 9.47-6.52 13.966-.453.882-2.05 1.32-3.209 1.673-7.228 2.207-13.687 5.534-18.368 12.231zM107.331 635.263c1.693-.647 3.063-1.07 4.554-1.53l-6.944-17.312 11.467-4.898 39.09 97.763c-7.789 3.04-15.209 5.6-22.317 8.845-3.845 1.756-5.032-.064-6.138-2.906-1.332-3.422-2.567-6.881-4.09-10.986 3.537-1.52 7.18-3.42 11.038-4.641 3.158-1 3.472-2.051 2.189-5.102-5.899-14.026-11.473-28.188-17.128-42.315-.225-.562-.091-1.267-.149-2.369l-24.94 10.05 13.005 32.55-9.092 3.598c-3.302-8.172-6.744-16.247-9.83-24.455-3.15-8.383-2.988-8.416-11.122-5.02-5.6 2.337-11.234 4.596-17.272 7.062l19.122 47.864 14.862-5.545 6.407 15.442-26.441 10.632-38.956-97.365c3.265-1.458 6.355-2.996 9.584-4.145.646-.23 2.296.811 2.67 1.635 1.851 4.075 3.59 8.219 5.04 12.45.81 2.362 1.503 2.527 3.845 1.554 13.302-5.524 26.723-10.763 40.098-16.111a476.629 476.629 0 0011.448-4.745zM982.322 485.823c8.962 16.435 4.44 35.116-6.87 45.206-9.875 8.81-21.363 11.935-34.162 8.6-13.784-3.591-22.884-12.595-26.184-26.411-5.053-21.154 6.388-40.31 27.69-44.79 13.71-2.885 29.103.246 39.526 17.395zM62.52 469.203c15.034 5.26 23.43 15.682 25.387 30.866 1.91 14.82-6 29.653-18.738 36.26-22.649 11.749-49.573-.258-53.951-26.619-3.621-21.8 12.751-41.71 34.75-41.662 4.058.008 8.113.635 12.552 1.155zM249.994 76.922c-1.005-2.579-1.975-4.77-3.095-7.299l53.482-25.133 5.146 11.71-18.279 9.21 28.353 60.37 45.312-21.168-9.115-19.37 15.943-7.494c2.193 4.325 4.486 8.674 6.618 13.101 2.018 4.191 3.464 8.714 5.901 12.63 2.461 3.953 1.963 5.664-2.36 7.631-20.01 9.105-39.874 18.533-59.771 27.887-10.016 4.708-19.99 9.505-30.357 14.44l-5.911-11.695 17.462-8.265-28.546-60.692-18.193 8.586c-1.016-1.615-1.785-2.838-2.59-4.449zM290.268 890.308c4.09-8.414 7.947-16.519 12.014-25.065l-17.007-8.66c.153-.292.35-.629.512-.983 4.748-10.426 4.715-10.36 14.808-5.427 13.26 6.482 26.579 12.846 39.976 19.311-.005.024-.028.264-.102.487-3.644 11.096-3.659 11.13-14.33 6.616-2.788-1.18-5.456-2.638-8.308-4.032l-27.184 56.893L332.94 949.9l9.334-18.244 14.955 7.523-13.795 28.818c-.729-.16-1.703-.19-2.506-.576-19.388-9.335-38.73-18.765-58.143-28.05-8.386-4.01-16.878-7.806-25.387-11.551-3.181-1.4-4.392-3.074-2.299-6.326 1.295-2.012 2.264-4.234 3.624-6.829l16.47 7.281c4.885-10.31 9.864-20.82 15.076-31.639zM860.923 179.087l4.495-2.07-12.32-14.556 9.378-9.086c9.632 11.11 19.813 22.89 30.049 34.624 1.637 1.877 3.398 3.686 5.31 5.276 2.658 2.211 2.92 4.167.046 6.358-2.316 1.767-4.538 3.658-7.104 5.74l-13.485-15.082-50.159 44.086c4.277 4.904 8.54 9.793 13.076 14.992l-9.958 8.595-38.538-43.89 9.505-8.471 13.947 15.14c14.443-12.57 28.8-25.046 43.12-37.562 1.239-1.083 2.244-2.433 3.04-3.92-.318-.261-.402-.174-.402-.174zM813.096 784.087l-4.04-5.192-12.579 14.276-9.496-8.04c4.89-5.769 9.708-11.524 14.605-17.21 6.514-7.564 13.09-15.075 19.641-22.607.218-.251.411-.603.691-.71 4.963-1.889 5.417 4.503 9.102 5.146.136.024.335 3.008-.375 3.95-2.363 3.135-4.935 6.173-7.795 8.854-2.513 2.356-2.182 3.974.207 6.026 9.935 8.531 19.843 17.095 29.68 25.74 4.955 4.354 9.734 8.908 14.861 13.617l12.279-14.122 9.644 7.926-36.357 41.7-9.673-8.005c4.329-4.934 8.404-9.581 12.963-14.78-14.31-12.432-28.618-24.862-43.186-36.973-.26.32-.172.404-.172.404zM408.363 984.635c.008-3.222.048-6.204.785-9.003.287-1.09 2.237-2.6 3.275-2.489 5.413.584 10.776 1.627 16.627 2.588 1.986-13.973 3.916-27.932 5.979-41.871.828-5.596 1.952-11.148 2.937-16.721.56-3.168-.583-4.86-3.972-5.182-4.512-.429-8.993-1.173-14.08-1.862.475-4.053.92-7.853 1.429-12.18l54.612 8.092c-.361 3.604-.434 6.712-1.108 9.684-.217.954-2.109 2.294-3.088 2.182-5.447-.622-10.849-1.636-16.69-2.585-1.676 11.718-3.295 23.59-5.098 35.432-1.168 7.676-2.603 15.312-3.92 22.965-.523 3.041.343 5.048 3.78 5.326 3.416.276 6.82.721 10.24.973 3.398.25 4.454 2.127 3.884 5.233-.437 2.383-.94 4.754-1.549 7.808-17.697-2.66-35.714-5.369-54.043-8.39z"
        opacity="1"
      ></path>
      <path
        fill="#FFF"
        d="M429.202 469.513c5.145 9.325 10.007 18.324 15.123 27.177 2.817 4.874 6.217 9.41 9.054 14.273 1.78 3.053 2.225 6.46-1.095 8.93-3.203 2.383-7.053 1.365-9.364-2.288-7.484-11.836-15.359-23.458-22.168-35.673-2.79-5.005-3.841-11.234-4.627-17.049-1.647-12.197 1.306-24.158 2.795-36.197 1.304-10.546 1.99-21.166 3.107-31.737.871-8.254 1.914-16.492 3.016-24.718.601-4.486 3.98-4.322 7.434-4.285 3.713.04 4.428 2.72 4.415 5.236-.026 5.074-.526 10.16-1.076 15.213-.828 7.607-1.872 15.19-2.815 22.783-1.303 10.504-3.003 20.98-3.771 31.523-.64 8.767-.179 17.613-.028 26.812zM583.347 477.182c-6.234 10.561-12.136 20.854-18.149 31.083-1.878 3.195-4.051 6.217-6.09 9.318-2.397 3.643-6.133 4.699-9.365 2.327-3.345-2.455-2.936-5.93-1.138-8.92 4.974-8.273 10.154-16.427 15.445-24.502 6.326-9.65 11.363-19.666 9.931-31.687-1.213-10.183-2.663-20.336-3.87-30.52-.826-6.979-1.345-13.995-2.13-20.98-.909-8.092-2.02-16.162-2.91-24.256-.254-2.305-.406-4.733.04-6.977.545-2.749 2.152-4.277 5.55-4.222 3.282.053 5.768.732 6.224 4.03 1.227 8.876 2.075 17.804 3.122 26.707 1.256 10.68 2.608 21.349 3.832 32.032.8 6.98 1.36 13.988 2.183 20.965 1.017 8.623-.054 17.018-2.675 25.602zM564.613 109.267c-10.485-1.757-20.589-3.255-30.682-4.821-4.936-.767-9.852-1.66-14.98-2.53 1.024-5.56 5.183-2.989 7.37-2.691 11.852 1.613 23.625 3.805 35.43 5.772 10.061 1.676 20.083 4.216 30.206 4.73 10.798.547 21.826 1.86 32.364-3.35 15.627-7.726 21.538-30.934 3.393-42.097-.601-.37-1.23-.693-2.18-1.224 20.108-7.086 25.683-25.978 7.964-41.914 6.461 1.946 11.277 6.307 13.22 12.545 4.168 13.39-1.021 23.542-12.888 30.585 16.407 12.247 8.65 37.243-5.252 44.384-5.41 2.779-11.726 4.575-17.787 5.15-13.787 1.31-27.405-1.152-40.932-3.764-1.596-.308-3.24-.37-5.246-.775zM633.573 932.204c11.902 11.187 13.938 22.785 6.489 36.224-4.19 7.56-11.346 12.027-19.054 14.315-11.995 3.56-24.402 5.807-36.715 8.197-13.34 2.59-26.77 4.728-40.17 7.004-2.196.373-4.442.444-6.948.681l-.177-3.535c14.799-2.376 29.551-4.4 44.157-7.191 13.262-2.535 26.822-4.646 39.422-9.223 16.077-5.84 22.746-17.838 18.354-33.304-1.868-6.58-7.129-10.053-13.24-12.368-1.278-.484-2.537-1.019-4.007-1.612 17.359-13.538 12.067-32.333-6.617-39.455 6.672-1.053 14.938 2.848 18.507 10.443 4.65 9.89 3.668 19.598-5.057 27.84 1.867.714 3.294 1.26 5.056 1.984zM127.29 275.29c1.305-.872 2.66-2.166 3.384-1.878 9.802 3.913 19.517 8.046 29.148 12.08-12.07 29.792-24.134 59.591-36.225 89.38-1.805 4.447-3.576 8.923-5.7 13.22-.706 1.43-2.465 2.34-3.742 3.489l-1.475-1.162 41.95-102.77c-8.634-3.355-16.79-6.477-24.891-9.732-1.04-.418-1.803-1.524-2.45-2.627zM879.754 371.326c-8.101-8.372-12.269-18.575-15.592-28.986-2.441-7.651-3.418-15.769-5.058-23.727l-3.523 1.484c-2.718-5.723-5.553-11.419-8.075-17.249-.456-1.055.37-2.664.605-4.017l1.481-.124c1.794 3.34 4.08 6.517 5.26 10.061 1.64 4.923 3.467 7.64 8.146 2.98 1.38 9.037 1.952 17.824 4.16 26.18 4.251 16.098 11.761 30.722 25.865 40.368 12.909 8.829 26.107 6.954 37.06-5.9.673-.79 1.23-1.68 2.15-2.952-.98 9.975-8.074 15.435-16.528 17.4-13.563 3.154-28.058-4.277-35.951-15.518zM352.319 127.263c11.965-5.607 23.616-10.986 35.78-16.6-4.378-9.175-8.63-18.242-13.038-27.233-1.426-2.91-1.603-4.92 2.331-5.381l16.145 34.427-98.755 46.356-1.213-1.795c.912-1.022 1.626-2.458 2.766-3.004 15.494-7.422 31.05-14.712 46.58-22.058 3.054-1.444 6.062-2.986 9.404-4.712zM935.656 718.766c12.461-11.69 20.875-25.382 24.857-41.723 2.335-9.58 2.52-18.961-2.513-27.814-4.496-7.91-11.626-11.625-20.526-12.21-1.985-.13-3.986-.019-6.133-.019 5.587-5.108 16.235-3.575 23.08 2.017 10.08 8.233 12.307 19.035 10.853 31.627-1.644 14.241-7.376 26.536-15.299 38.049-2.856 4.15-6.274 7.914-9.635 12.102 2.775 1.277 2.986 3.157 1.374 6.1-2.447 4.467-4.24 9.29-6.383 14.122-2.18-.29-4.308-.254-2.434-3.752 1.952-3.645 3.317-7.604 5.127-11.869l-6.28-3.876c1.368-.965 2.492-1.758 3.912-2.754zM98.729 739.676c-8.19 3.65-16.148 6.987-24.11 10.317-1.62.677-3.252 1.323-5.098 2.073l-40.365-100.6 3.499-1.772 38.871 97.101c7.633-2.98 15.404-5.89 23.058-9.08 2.32-.966 3.706-1.03 4.145 1.96zM321.643 966.245c-22.656-10.739-44.983-21.263-67.55-31.9l1.468-3.751 89.365 42.733c3.357-7.024 6.543-14.158 10.172-21.06 1.469-2.791 1.117-7.761 7.717-7.055l-15.818 33.437a5469.146 5469.146 0 01-25.354-12.404zM212.909 169h-17.821c.34-6.271.53-12.274 1.032-18.251.448-5.347 1.777-10.669 1.742-15.995-.042-6.474 1.488-11.787 6.72-15.919 2.707-2.137 5.05-4.737 7.768-7.329l-9.43-8.957 2.834-2.662c.593.272.959.333 1.16.549 3.371 3.603 9.507 7.36 9.34 10.807-.19 3.933-5.7 7.928-9.45 11.28-3.63 3.244-4.81 6.718-4.979 11.562-.35 10.09-1.679 20.145-2.67 30.915H243.957c-2.159 1.212-3.705 2.774-5.35 2.887-8.39.577-16.804.78-25.698 1.113zM250.745 843.245c-.956-.955-1.84-1.555-2.342-2.386-4.745-7.86-12.672-8.261-20.527-8.859-7.153-.543-14.306-1.084-21.916-1.66v41.467l-1.492.56c-.823-1.656-2.335-3.303-2.359-4.97-.193-13.635-.109-27.273-.109-41.215 5.285.315 10.295.477 15.276.948 4.855.46 9.689 1.814 14.515 1.736 7.497-.121 13.83 1.514 18.476 7.835 1.468 1.997 3.377 3.67 5.445 5.875l7.875-9.849 3.301 3.845-11.836 11.627a562.663 562.663 0 00-4.307-4.954zM868.293 203.209c3.032-2.532 5.8-4.819 8.938-7.413l12.56 14.466c5.556.134 6.631-8.404 12.677-6.68l1.014 1.564-13.138 11.916-13.481-15.282-41.685 36.495c-3.617-2.317-2.033-4.126.006-5.92a68346.935 68346.935 0 0033.11-29.146zM317.217 119.6c-8.22-17.451-16.25-34.576-24.422-52.003l18.354-8.595c-1.577-3.832-3.068-7.153-4.266-10.576-.312-.892.29-2.105.472-3.17 1.056.597 2.616.933 3.08 1.834 2.272 4.406 4.251 8.962 6.395 13.597l-18.39 8.805c7.2 15.596 14.426 31.345 21.754 47.046 1.608 3.445.497 4.197-2.977 3.061zM452.73 34.386c-.847-5.2-1.461-10.012-2.096-14.984l20.18-2.809c-.61-3.54-1.44-7.012-1.684-10.526-.08-1.16 1.351-2.424 2.092-3.64l1.439.627 2.602 16.602-20.166 3.367c1.377 9.953 2.61 19.092 3.912 28.221 1.077 7.542 1.795 15.177 3.548 22.563.836 3.522-.194 4.313-3.602 4.74-1.98-14.458-3.986-29.115-6.226-44.161zM803.367 115.833c2.224 18.794-8.924 29.576-31.95 31.465v25.463c-3.603-.767-3.994-1.88-3.682-5.287.755-8.235 1.134-16.706-3.359-25.073 11.877 1.885 22.533.883 30.18-8.587 7.312-9.058 8.325-19.1 1.387-29.674l2.58-.4c1.513 3.926 3.026 7.852 4.844 12.093zM834.69 768.192c11.934 10.58 23.6 20.92 35.578 31.534l-2.422 2.985c-13.468-11.575-26.76-23.013-40.075-34.424-1.998-1.712-2.42-3.191-.345-5.328 3.551-3.656 6.825-7.581 10.463-11.672l-8.727-8.202 1.529-3.627 12.834 11.184-12.792 14.54c1.238.93 2.463 1.85 3.956 3.01zM299.285 920.28c6.81-14.242 13.372-28.18 20.125-42.525l17.264 8.553c1.683-3.22 3.175-6.41 5.017-9.381.526-.848 2.07-1.065 3.146-1.57.066 1.083.524 2.34.132 3.22-1.888 4.234-4.005 8.366-6.18 12.818l-17.463-8.066-22.77 47.62c-5.018-4.592.464-7.215.73-10.668zM479.017 911.296c3.5-1.218 4.574-.275 3.95 3.3-.721 4.121-1.625 8.21-2.433 12.227-5.401-.942-10.77-2.042-16.191-2.67-.976-.114-2.96 1.576-3.147 2.663-1.266 7.35-2.194 14.76-3.19 22.156-1.04 7.725-1.862 15.485-3.178 23.161-.31 1.805-.666 5.436-4.648 3.402l8.259-55.676 19.203 2.403c.494-3.823.927-7.176 1.375-10.966zM245.25 192.25c8.148-8.082 16.046-15.913 24.175-23.974l-8.212-9.967 3.25-3.022c3.143 3.372 6.271 6.363 8.886 9.75.817 1.06.99 3.916.203 4.72-14.066 14.366-28.288 28.578-42.622 42.676-.96.945-3.078.713-4.658 1.03l-.584-1.699 19.562-19.514zM775.306 871.718c-3.615-1.294-6.905-2.346-10.518-3.502 7.102-8.504 9.666-17.81 5.209-28.335-4.416-10.425-13.072-14.345-23.912-14.966 10.665-2.135 20.012-.45 25.828 9.131 6.343 10.45 5.524 21.164-.288 31.372l20.925 10.223-.516 2.39c-1.494 0-3.194.465-4.445-.086-4.075-1.796-7.985-3.963-12.283-6.227zM813.21 244.708c5.629 6.23 11.013 12.197 16.619 18.41 3.287-2.33 6.618-4.769 10.08-7.007.298-.193 1.458.945 2.793 1.857l-12.882 11.497-40.921-46.346 2.682-3.408c7.24 8.374 14.313 16.554 21.63 24.997zM201.222 895.723c2.627-1.435 5.215-2.905 7.34-4.875 2.02-1.872 3.576-2.845 5.41-.256l-10.653 10.3-44.176-44.192 2.197-2.254c13.22 13.681 26.43 27.352 39.882 41.277zM687.233 150.73c-8.268-5-16.272-9.731-24.996-14.888l4.006-2.465 45.608 27.475 6.606-10.565 3.612 1.991-8.524 14.255c-8.845-5.276-17.446-10.405-26.312-15.803zM763.05 192.004c2.829 1.505 5.28 2.976 7.972 4.59l6.66-10.75 3.67 1.912-8.725 14.643-49.785-30.047 1.942-3.8c12.732 7.87 25.31 15.644 38.266 23.452zM471.379 97.272c3.602-.56 6.819-.887 10.123-1.223l-1.722-12.646c2.726-.7 4.207-.87 4.336 2.536.127 3.334 1.541 6.618 1.675 9.952.054 1.323-1.654 3.734-2.841 3.928-9.921 1.621-19.917 2.779-29.873 4.2-8.164 1.166-16.31 2.474-24.453 3.78-2.603.417-4.726.377-4.585-3.458 15.643-2.277 31.3-4.556 47.34-7.069z"
        opacity="1"
      ></path>
      <path
        fill="#FFF"
        d="M904.017 319.868c6.398 15.9 7.863 29.089 4.484 33.127-4.386-17.342-9.405-35.228-13.233-53.365-1.365-6.467-1.413-13.777 2.62-20.012.908-1.404 2.017-2.678 3.644-3.791-6.115 15.112-1.807 29.368 2.485 44.041zM865.779 840.718c-1.568 1.732-2.888 3.201-4.104 4.554-4.245-1.75-2.14-3.989-.882-5.446 7.702-8.918 15.57-17.693 23.393-26.506 2.937-3.31 6.013-6.507 8.75-9.973.51-.646.106-2.676-.574-3.473-2.01-2.36-4.37-4.423-6.596-6.604 3.453-3.262 4.36-2.763 14.466 7.685-5.325 6.094-10.698 12.198-16.02 18.346-6.086 7.031-12.126 14.102-18.433 21.417zM104.769 310.602c-3.738 8.744-7.275 17.141-11.003 25.99l16.411 7.01-1.759 3.574-19.828-8.092 13.675-33.817c-3.344-1.885-6.323-3.497-9.176-5.306-.217-.138.454-1.678.79-2.835 3.225 1.183 6.121 2.32 9.068 3.307 3.77 1.263 5.32 3.296 2.923 7.099-.495.785-.61 1.809-1.101 3.07zM919.744 677.681c4.113-6.298 7.77-12.576 14.616-13.743-8.959 13.214-17.743 27.184-27.616 40.338-5.589 7.446-12.355 14.62-24.061 13.615 4.322-2.53 8.752-4.09 11.733-7.088 5.752-5.786 10.894-12.225 15.888-18.7 3.423-4.438 6.169-9.396 9.44-14.422zM205.221 213.39c1.489-.071 3.169-.252 4.017.503 3.355 2.984 6.448 6.261 9.506 9.298l-43.604 43.594-2.497-2.83 39.988-39.936c-2.464-3.342-5.032-6.825-7.41-10.629zM722.232 942.27c10.696-6.596 21.084-12.993 31.589-19.193 2.203-1.3 2.872-2.348 1.262-4.524-1.238-1.674-2.4-3.451-3.256-5.337-.395-.872.025-2.113.075-3.186 1.18.303 2.943.22 3.443.974 2.383 3.593 4.423 7.414 6.79 11.509-6.755 4.152-13.546 8.338-20.35 12.503-7.94 4.859-15.848 9.774-23.888 14.462-1.182.69-3.017.26-4.55.347.77-1.265 1.273-2.88 2.37-3.718 1.888-1.443 4.146-2.404 6.515-3.836zM792.657 899.753c6.864-4.25 13.416-8.287 20.052-12.374-1.521-2.53-3.296-5.187-4.714-8.022-.44-.878.093-2.24.18-3.382 1.154.387 2.846.423 3.368 1.223 2.273 3.481 4.206 7.185 6.618 11.435L771.229 917.1l-1.482-.5c.48-1.421.524-3.539 1.508-4.155 6.922-4.332 14.037-8.355 21.402-12.692zM72.756 287.632c-4.628 10.776-9.143 21.177-13.315 31.715-.417 1.054.855 3.637 2.024 4.288 2.895 1.612 6.301 2.29 9.262 3.81 1.232.633 1.851 2.456 2.75 3.738l-1.18 1.222-19.243-7.797c5.452-13.556 10.803-26.886 16.19-40.202.422-1.04.95-2.117 1.7-2.921.61-.652 1.63-.92 2.468-1.357.308 1.03.948 2.095.846 3.083-.142 1.392-.835 2.727-1.502 4.421zM125.25 823.75l-16.733-16.614c2.404-2.237 3.998-2.322 6.16-.04 11.505 12.146 23.159 24.151 34.639 36.078l8.734-9.277 2.154 4.503c-2.385 2.357-5.37 5.502-8.61 8.36-.74.652-2.927.893-3.476.347-7.638-7.603-15.107-15.376-22.868-23.357zM87.017 689.9c-2.12-5.574-4.223-10.749-6.29-15.835-5.114 1.7-9.92 3.37-14.791 4.813-.508.15-1.412-1.034-2.995-2.276 6.613-2.75 12.4-5.253 18.305-7.441.534-.198 2.246 1.468 2.695 2.562 3.523 8.578 6.848 17.238 10.301 25.845.468 1.167 1.31 2.183 1.793 2.968l10.781-3.261c-2.704 7.254-9.157 5.841-12.926 9.061-2.379-5.565-4.617-10.8-6.873-16.436zM123.017 671.895c6.29 11.935 10.177 24.506 7.564 27.973-2.32-5.166-4.586-9.792-6.495-14.561-2.91-7.268-5.56-14.639-8.347-21.956-.935-2.455-2.461-2.93-4.92-1.785-3.61 1.683-7.38 3.026-11.387 4.636-.707-2.864-.81-4.416 2.769-5.4 4.887-1.344 9.447-3.879 14.158-5.907 2.257 5.643 4.45 11.121 6.658 17zM94.996 267.053c1.882-2.61.576-3.323-1.494-4.156-8.452-3.398-16.84-6.956-25.169-10.421l1.282-3.88 31.777 12.915c-2.49 6.234-4.68 12.073-7.22 17.756-.458 1.024-2.352 1.406-3.582 2.085l-1.087-1.181c1.82-4.244 3.638-8.487 5.493-13.118zM963.672 362.74c-4.67 2.126-9.02 4.025-13.688 6.063-2.762-5.824-5.62-11.715-8.301-17.685-.318-.708.338-1.853.543-2.795.977.394 2.46.513 2.85 1.229 2.376 4.348 4.503 8.832 6.9 13.645 7.142-3.318 14.616-6.588 21.886-10.263 3.088-1.561 4.386-.778 5.169 2.567-4.97 2.317-10.005 4.665-15.36 7.24zM136 721c6.002-2.349 11.608-4.66 17.38-7.04l1.924 3.584-7.27 2.92c-6.663 2.675-13.339 5.32-19.984 8.042-2.381.976-3.53.75-4.446-2.144-1.699-5.37-4.113-10.511-6.23-15.748l1.571-1.028c1.027.898 2.275 1.645 3.024 2.735.89 1.295 1.356 2.883 2 4.346 3.437 7.813 3.436 7.813 12.031 4.333zM898.74 620.296c-2.053-1.054-3.997-1.597-5.496-2.729-1.188-.896-1.83-2.514-2.715-3.812l1.076-.948c2.967 1.121 6 2.096 8.887 3.396 5.269 2.37 10.419 5.006 15.685 7.385 2.547 1.151 3.533 2.247 1.936 5.186-2.59 4.768-4.62 9.841-6.882 14.777-3.097-.415-4.05-1.343-2.343-4.294 1.75-3.027 2.977-6.39 4.12-9.712.332-.966-.061-3.033-.72-3.348-4.324-2.072-8.813-3.802-13.548-5.9zM731.251 128.745c3.527 3.22 7.244 5.868 7.804 10.74l-21.327-15.128-7.074 11.742-3.998-1.732 9.598-15.422c4.976 3.22 9.856 6.38 14.997 9.8zM945.991 309.305c1.736 7.002 3.233 13.595.018 21.567-1.203-16.362-6.172-30.032-17.63-41.078 4.266-.583 6.999.757 9.528 4.867 2.855 4.641 5.394 9.477 8.084 14.644zM747.81 888.003c1.27.339 2.134.68 3.223 1.108l-22.242 11.185c1.843 3.222 3.738 6.117 5.156 9.23.524 1.15-.075 2.81-.162 4.238-.553-.005-1.107-.01-1.661-.017l-9.112-15.257c8.42-3.62 16.407-7.053 24.798-10.487zM167.538 169.764c-4.36.204-8.303.204-13.435.204l6.028-6.885-9.137-7.922 3.518-4.304c3.322 3.38 6.586 6.467 9.53 9.835.934 1.068 1.01 2.885 1.798 5.362h9.376c-.99 5.175-5.449 1.526-7.678 3.71zM204.998 804.877c-1.056 1.155-2.11 1.86-3.813 2.996v-21.116c2.051 3.156 3.368 5.18 4.887 7.519l8.891-10.262 4.27 3.628c-5.045 3.197-7.335 9.56-14.233 11.07 0 1.134 0 3.424-.002 6.165zM892.776 653.58c-6.957 7.975-12.815 16.577-15.012 27.158-.595 2.863-.767 5.812-1.156 8.9-4.658-2.474-3.149-7.267-2.354-10.344 2.706-10.482 6.44-20.689 17.52-26.16.708.239.855.342 1.002.446zM196 201.946c-1.706 5.094 1.017 11.106-5.465 15.517.833-7.96 1.444-14.938 2.409-21.868.159-1.145 1.868-2.074 2.86-3.104l.908.915a643.007 643.007 0 00-.712 8.54zM168.405 826.738c-4.156-1.733-9.274 1.092-11.95-3.851-.068-.125.007-.327.057-1.322 6.56.806 13.057 1.846 19.596 2.31 3.417.244 3.285 1.664 2.804 3.088-3.676 0-6.894 0-10.507-.225zM119.305 205.767c3.75-5.173 6.896-11.244 13.925-12.05l1.114 1.304c-3.77 3.817-7.466 7.712-11.394 11.36-.549.51-2.23-.2-3.645-.614zM166.179 757.527c.243-1.452.641-2.563 1.491-4.938 3.687 6.104 11.582 7.806 10.023 17.053-4.12-4.272-7.74-8.023-11.514-12.115zM542.962 24.998c-3.428-.6-6.489-.98-9.374-1.905-1.233-.396-2.101-1.93-3.135-2.946l1.015-1.269 14.148 2.48c-.886 1.457-1.55 2.548-2.654 3.64zM861.05 178.958c-2.596 1.18-4.495 1.026-5.88-2.113-.74-1.682-2.97-2.66-3.95-4.3-.697-1.169-.431-2.913-.596-4.4l1.927-.648c2.813 3.62 5.627 7.24 8.407 11.225-.035.365.049.278.093.236zM268.612 83.768c-2.392 1.016-4.406 1.975-6.521 2.576-.805.229-1.843-.364-2.775-.583.391-.968.511-2.434 1.22-2.82 3.196-1.738 6.558-3.172 10.033-4.795 3.086 2.837.92 4.179-1.957 5.622zM46.77 350.583c-1.313 3.17-2.32 6.025-3.607 8.748-.355.75-1.546 1.104-2.353 1.64-.43-.99-1.42-2.142-1.189-2.94.84-2.893 1.977-5.72 3.257-8.453.348-.74 1.617-1.48 2.42-1.436.593.033 1.117 1.338 1.471 2.441zM417.408 28.01c-3.646 2.443-3.391-.932-5.159-2.61 4.614-.896 8.456-1.837 12.354-2.255.915-.098 2.02 1.575 4.11 3.34-4.857.677-7.868 1.097-11.305 1.526zM711.766 67.27c1.559.906 2.846 1.537 4.348 2.274l-1.74 3.755-10.905-6.178-.291-1.575c1.366-.273 2.816-.962 4.078-.711 1.497.297 2.833 1.405 4.51 2.435zM812.967 783.959c-2.618 3.774-5.195 7.592-7.968 11.7l-3.027-3.238c2.39-2.685 4.705-5.486 7.277-8.026.596-.588 2.073-.284 3.496-.35.351.042.264-.042.222-.086zM292.67 869.262c-2.301-2.176-7.603-.678-6.343-6.64l12.29 5.087c-1.453 3.711-1.453 3.711-5.948 1.553zM524.669 920.115c4.264-.488 8.121-.876 13.514-1.42-1.511 1.91-2.01 3.206-2.795 3.413-3.103.816-6.283 1.448-9.47 1.711-.45.037-1.099-2.342-1.25-3.704zM101.736 622.016c2.43 3.757 4.454 7.503 6.563 11.41l-4.021 1.295c-1.265-2.89-2.746-5.751-3.72-8.775-.358-1.115.48-2.615 1.178-3.93zM672.394 884.853c2.954-2.555 6.17-4.843 9.753-7.393l1.982 3.924c-3.156 1.755-6.008 3.467-9 4.885-.524.249-1.634-.735-2.735-1.416zM428.06 919c-2.14-.724-3.847-1.448-5.554-2.172l.65-2.008 12.79 1.396c.012 3.103-.76 4.704-4.084 3.195-.982-.447-2.237-.29-3.802-.411zM171.686 154.182c1.044-2.375 2.356-4.503 3.67-6.632l2.06.99c-.854 2.037-1.586 4.144-2.672 6.05-.205.359-1.823-.088-3.058-.408z"
        opacity="0"
      ></path>
      <path
        fill="#FFF"
        d="M892.13 653.095c.359-.418.923-.66 1.486-.904-.131.336-.263.67-.618 1.197-.37.088-.516-.015-.868-.293z"
        opacity="0"
      ></path>
      <path
        d="M557.267 69.385c.82-3.89 1.41-7.397 2.074-11.347 4.71.651 9.49 1.109 14.187 2.004 9.806 1.868 19.643 3.666 29.314 6.103 4.658 1.174 8.89 3.957 11.044 8.649 3.963 8.63-2.021 18.39-11.737 18.031-10.06-.371-20.082-2.037-30.095-3.335-5.597-.726-11.14-1.854-17.227-2.89.74-5.637 1.475-11.235 2.44-17.215m5.129-5.295l-2.858 19.576c2.78 1.234 4.484 1.461 4.6-2.777.126-4.625 1.324-9.222 2.1-14.116 15.06 3.772 30.746 3.18 44.778 10.572a17.373 17.373 0 00-4.538-4.371c-8.508-5.64-18.513-6.154-28.116-7.902-5.04-.917-10.216-1.089-15.966-.982zM586.17 51.999c-8.561-1.46-16.67-2.919-25.235-4.46l4.474-27.175c11.377 1.87 22.881 3.49 34.257 5.757 5.086 1.013 10.179 2.816 14.781 5.2 4.34 2.25 6.224 6.676 5.482 11.664-.667 4.48-5.64 9.73-10.122 9.867-6.548.199-13.122-.507-19.687-.81-1.163-.055-2.33-.03-3.95-.043m24.815-17.53c-1.541-.824-2.996-2.062-4.637-2.404-12.236-2.549-24.508-4.92-37.079-7.408-1.154 6.017-2.432 11.494-3.115 17.044-.179 1.45 1.495 3.128 2.317 4.701l1.11-.74 2.835-16.594 42.79 8.812a836.121 836.121 0 01-4.221-3.411zM382.763 566.266c-10.16-11.125-15.808-24.214-19.731-38.131-1.822-6.46-4.292-12.85-2.114-19.89 1.556-5.033 3.107-6.882 7.958-5.073 7.913 2.95 16.55 5.524 22.919 10.681 9.616 7.787 17.847 17.392 26.045 26.768 3.519 4.024 5.532 9.383 8.123 14.194 1.532 2.845 3.582 5.03 6.955 4.052 1.546-.448 3.447-2.132 3.795-3.589.386-1.616-.57-3.73-1.383-5.414-1.291-2.677-1.658-4.612.46-7.48 3.718-5.034 8.018-7.36 14.315-7.478 23.17-.43 46.33-1.573 69.498-1.77 12.16-.103 24.337 1.146 36.499 1.897 3.717.23 11.873 6.711 12.389 10.14.245 1.631-.872 3.541-1.591 5.231-1.945 4.567-1.215 7.079 2.459 8.363 3.36 1.175 5.43-1.098 6.375-3.316 4.867-11.437 12.555-20.893 21.075-29.556 10.156-10.326 21.333-19.502 36.034-22.851 5.48-1.249 9.459 1.995 8.973 8.674-.498 6.85-2.08 13.699-3.88 20.361-3.708 13.737-10.8 25.727-20.023 36.512-8.724 10.2-20.577 15.223-32.998 18.115-9.636 2.245-13.108 7.347-15.158 16.531-5.704 25.564-12.227 50.962-19.132 76.232-2.418 8.846-7.178 16.956-14.066 23.454-.72.68-1.402 1.435-2.227 1.958-.63.4-1.459.489-2.219.722-.582-17.098-13.559-27.999-33.25-27.544-12.508.288-26.708 12.13-26.992 30.187-3.631-3.83-7.48-7.477-10.85-11.523-7.778-9.342-10.17-20.959-12.998-32.327-5.743-23.091-11.275-46.235-17.2-69.278-.519-2.014-3.003-4.177-5.08-5.017-7.412-2.997-15.13-5.231-22.566-8.175-8.107-3.21-14.922-8.33-20.414-15.66m83.925 58.706c4.974 1.676 9.89 3.565 14.944 4.947 3.005.822 4.948-.689 4.334-4.053-.863-4.73-1.365-9.658-3.148-14.044-1.42-3.49-3.89-7.508-7.018-9.155-6.864-3.614-14.515-5.697-21.69-8.766-3.195-1.366-5.753-.76-6.917 1.991-1.078 2.546.052 4.976 3.15 6.285 1.209.51 2.316 2.41 2.572 3.838 1.486 8.292 5.666 14.55 13.773 18.957m63.682 3.03c2.027-.958 4.054-1.915 6.08-2.875 7.584-3.592 12.985-8.828 13.803-17.743.226-2.473.748-4.643 3.974-5.693 1.394-.453 1.8-3.939 2.656-6.047-2.078-.636-4.328-2.116-6.198-1.735-4.202.858-8.127 3.042-12.323 3.967-11.711 2.582-18.056 9.777-19.319 21.53-.352 3.282-.147 6.625-.198 9.94 3.568-.432 7.135-.864 11.525-1.344zM762.735 124.317c-6.753-3.082-13.373-5.517-19.54-8.802-7.216-3.844-14.039-8.43-21.651-13.07l14.735-24.766c5.738 3.363 11.27 6.463 16.655 9.8 5.465 3.389 10.956 6.78 16.117 10.6 4.59 3.399 8.871 7.313 8.946 13.777.106 9.13-5.572 13.964-15.262 12.461m-7.402-26.287l20.844 15.125c-8.521-16.991-26.086-20.359-38.17-30.566-3.322 5.42-6.226 10.402-9.386 15.215-1.665 2.536-2.333 4.51 1.445 6.01l9.4-15.107c5.278 3.232 10.198 6.244 15.867 9.323zM740.718 869.776c-8.891 5.547-17.617 10.68-26.074 16.225-2.508 1.644-3.186.824-4.366-1.171-4.005-6.772-8.144-13.465-12.714-20.982 11.45-6.386 22.568-13.11 34.16-18.883 8.659-4.311 15.627-2.102 19.366 6.18 2.407 5.334-.645 9.001-3.471 12.594-1.782 2.265-4.393 3.877-6.9 6.037m-26.12-11.741l-11.632 7.372 10.734 17.824c3-1.601 3.43-3.142 1.586-5.534-2.055-2.666-3.934-5.524-5.433-8.526-.502-1.006-.066-3.512.733-3.98 10.755-6.302 21.651-12.365 32.58-18.526-10.978-1.047-19.018 6.16-28.568 11.37zM604.038 967.024c-8.626 1.673-16.82 3.403-25.05 4.946-4.763.893-9.582 1.486-14.495 2.232l-4.26-27.231c11.062-1.632 22.438-3.035 33.698-5.074 6.657-1.205 12.713-1.334 18.5 2.85 6.742 4.874 6.386 15.347-.958 19.276-2.232 1.194-4.673 1.998-7.435 3.001M591.542 946l-26.731 4.122c.87 6.133 1.512 11.924 2.658 17.612.224 1.115 2.405 1.836 4.62 3.4l-3.21-18.409 42.21-4.679c-5.567-3.622-12.209-1.976-19.547-2.046zM597.805 929.987c-13.32 2.61-26.23 5.207-39.248 7.824l-4.204-26.091c4.43-.855 8.775-1.953 13.188-2.492 10.018-1.222 20.049-2.565 30.115-3.102 7.985-.426 13.292 5.408 12.27 12.798-.714 5.153-4.65 7.93-9.025 10.05-.856.414-1.789.67-3.096 1.013m5.316-16.344l1.619.121c-.315-.44-.63-.879-1.476-1.923-2.78-.613-5.629-1.962-8.33-1.713-11.142 1.03-22.253 2.451-33.332 4.035-1.017.145-2.273 2.396-2.44 3.787-.223 1.834.468 3.796.863 5.683.71 3.389 1.49 6.763 2.221 10.05l3.484-1.118-2.51-15.57c13.344-1.314 26.526-2.614 39.9-3.352z"
        opacity="0"
      ></path>
      <path
        fill="#FFF"
        d="M562.714 63.782c5.432.201 10.608.373 15.648 1.29 9.603 1.748 19.608 2.263 28.116 7.902a17.373 17.373 0 014.538 4.37c-14.032-7.391-29.718-6.8-44.778-10.57-.776 4.893-1.974 9.49-2.1 14.115-.116 4.238-1.82 4.01-4.6 2.777.954-6.536 1.906-13.056 3.176-19.884zM611.279 34.714c1.554 1.259 2.815 2.272 3.927 3.166l-42.79-8.812-2.835 16.593-1.11.741c-.822-1.573-2.496-3.25-2.317-4.701.683-5.55 1.96-11.027 3.115-17.044 12.57 2.488 24.843 4.859 37.08 7.408 1.64.342 3.095 1.58 4.93 2.65zM466.368 624.766c-7.787-4.201-11.967-10.46-13.453-18.751-.256-1.428-1.363-3.328-2.572-3.838-3.098-1.309-4.228-3.74-3.15-6.285 1.164-2.75 3.722-3.357 6.916-1.99 7.176 3.068 14.827 5.151 21.69 8.765 3.13 1.647 5.599 5.665 7.019 9.155 1.783 4.386 2.285 9.315 3.148 14.044.614 3.364-1.33 4.875-4.334 4.053-5.055-1.382-9.97-3.271-15.264-5.153zM529.959 628.026c-3.979.456-7.546.888-11.114 1.32.05-3.315-.154-6.658.198-9.94 1.263-11.753 7.608-18.948 19.319-21.53 4.196-.925 8.12-3.11 12.323-3.967 1.87-.381 4.12 1.1 6.198 1.735-.855 2.108-1.262 5.594-2.656 6.047-3.226 1.05-3.748 3.22-3.974 5.693-.818 8.915-6.219 14.151-13.802 17.743-2.027.96-4.054 1.917-6.492 2.9zM754.959 97.997c-5.295-3.046-10.215-6.058-15.493-9.29l-9.4 15.106c-3.778-1.5-3.11-3.473-1.445-6.009 3.16-4.813 6.064-9.795 9.385-15.215 12.085 10.207 29.65 13.575 38.171 30.566-7.747-5.622-14.296-10.373-21.218-15.158zM714.974 858.001c9.175-5.175 17.215-12.383 28.193-11.336-10.929 6.16-21.825 12.224-32.58 18.526-.8.468-1.235 2.974-.733 3.98 1.499 3.002 3.378 5.86 5.433 8.526 1.844 2.392 1.413 3.933-1.586 5.534l-10.734-17.824c4.027-2.553 7.83-4.962 12.007-7.406zM592.001 946c6.88.07 13.52-1.576 19.088 2.046-13.793 1.53-27.886 3.091-42.21 4.679l3.21 18.409c-2.215-1.564-4.396-2.285-4.62-3.4-1.146-5.688-1.787-11.479-2.658-17.612 9.183-1.416 17.957-2.77 27.19-4.122zM602.927 913.082l-39.707 3.914 2.51 15.57c-.878.28-2.051.657-3.484 1.117-.73-3.287-1.512-6.661-2.221-10.05-.395-1.887-1.086-3.849-.864-5.683.168-1.391 1.424-3.642 2.441-3.787 11.08-1.584 22.19-3.005 33.333-4.035 2.7-.25 5.548 1.1 8.37 2.164-.099.564-.238.677-.378.79zM603.57 912.594c.54.291.855.73 1.17 1.17-.54-.04-1.08-.08-1.716-.401.043-.394.182-.507.546-.769z"
        opacity="1"
      ></path>
    </svg>